<svg width="240" height="240" viewBox="0 0 240 240" fill="none" xmlns="http://www.w3.org/2000/svg">
<path d="M130.533 56H138.809C170.408 56 189.676 66.7001 196.614 88.1003C198.871 95.2059 200 103.44 200 112.803V126.596H130.533V56ZM40 121.455C40 112.259 41.2121 103.732 43.6364 95.8746C46.0606 87.9331 49.8224 80.9948 54.9216 75.0596C65.9561 62.3532 81.7555 56 102.32 56H111.975V183.9H105.455C84.3887 183.9 68.0878 178.132 56.5517 166.596C45.5172 155.561 40 140.514 40 121.455ZM130.533 151.172H193.229V154.683C193.229 162.458 190.428 169.02 184.828 174.37C177.973 180.723 168.234 183.9 155.611 183.9H130.533V151.172Z" fill="black"/>
</svg>
